<svg xmlns="http://www.w3.org/2000/svg" width="500" height="500" style="width:100%;height:100%"><defs><clipPath id="a"><path d="M0 0h500v500H0z"/></clipPath></defs><g display="block" clip-path="url(#a)"><path stroke-linecap="round" stroke-linejoin="round" stroke="#121331" stroke-width="11.43072" d="M337.457 397.98H165.132c-13.632 0-24.682-11.05-24.682-24.683V131.3c0-13.632 11.05-24.683 24.682-24.683h172.325c13.632 0 24.683 11.051 24.683 24.683v241.997c0 13.632-11.051 24.683-24.683 24.683zM198.169 242.015h-29.48a8.68 8.68 0 01-8.679-8.679v-29.48a8.68 8.68 0 018.679-8.679h29.48a8.68 8.68 0 018.679 8.68v29.48a8.68 8.68 0 01-8.68 8.678zm67.866 0h-29.48a8.68 8.68 0 01-8.679-8.679v-29.48a8.68 8.68 0 018.679-8.679h29.48a8.68 8.68 0 018.679 8.68v29.48a8.68 8.68 0 01-8.68 8.678zm-68.039 67.2h-29.48a8.68 8.68 0 01-8.678-8.679v-29.48a8.68 8.68 0 018.679-8.679h29.48a8.68 8.68 0 018.68 8.68v29.48a8.68 8.68 0 01-8.68 8.678zm67.867 0h-29.48a8.68 8.68 0 01-8.68-8.679v-29.48a8.68 8.68 0 018.68-8.679h29.48a8.68 8.68 0 018.68 8.68v29.48a8.68 8.68 0 01-8.68 8.678zm-67.79 67.62h-29.48a8.68 8.68 0 01-8.678-8.679v-29.48a8.68 8.68 0 018.679-8.679h29.48a8.68 8.68 0 018.679 8.68v29.48a8.68 8.68 0 01-8.68 8.678zm67.867 0h-29.48a8.68 8.68 0 01-8.679-8.679v-29.48a8.68 8.68 0 018.679-8.679h29.48a8.68 8.68 0 018.679 8.68v29.48a8.68 8.68 0 01-8.68 8.678zm67.96-134.82h-29.479a8.68 8.68 0 01-8.679-8.679v-29.48a8.68 8.68 0 018.68-8.679H333.9a8.68 8.68 0 018.679 8.68v29.48a8.68 8.68 0 01-8.68 8.678z" fill="none"/><path stroke-linecap="round" stroke-linejoin="round" stroke="#08A88A" stroke-width="11.43072" d="M326.746 174.907H175.844c-8.745 0-15.834-7.09-15.834-15.834v-15.17c0-8.744 7.089-15.834 15.834-15.834h150.902c8.745 0 15.834 7.09 15.834 15.835v15.169c0 8.745-7.089 15.834-15.834 15.834zm7.147 201.486h-29.48a8.68 8.68 0 01-8.678-8.679l-.188-96.68a8.68 8.68 0 018.68-8.678h29.479a8.68 8.68 0 018.679 8.678l.187 96.68a8.68 8.68 0 01-8.679 8.68z" fill="none"/></g></svg>